<svg width="34" height="38" viewBox="0 0 34 38" fill="none" xmlns="http://www.w3.org/2000/svg">
<path d="M25.6709 19.5215L23.7041 17.5547L14.6494 26.6094L10.7158 22.6758L8.74902 24.6426L14.6494 30.543L25.6709 19.5215ZM30.2539 4.56641H28.3984V0.855469H24.6875V4.56641H9.84375V0.855469H6.13281V4.56641H4.27734C2.21777 4.56641 0.584961 6.23633 0.584961 8.27734L0.566406 34.2539C0.566406 36.2949 2.21777 37.9648 4.27734 37.9648H30.2539C32.2949 37.9648 33.9648 36.2949 33.9648 34.2539V8.27734C33.9648 6.23633 32.2949 4.56641 30.2539 4.56641ZM30.2539 34.2539H4.27734V13.8437H30.2539V34.2539Z" fill="#0F8987"/>
</svg>
